<?xml version="1.0" encoding="utf-8"?>
<!-- Generator: Adobe Illustrator 21.1.0, SVG Export Plug-In . SVG Version: 6.00 Build 0)  -->
<svg version="1.1" id="Capa_1" xmlns="http://www.w3.org/2000/svg" xmlns:xlink="http://www.w3.org/1999/xlink" x="0px" y="0px"
	 viewBox="0 0 803.1 803.1" style="enable-background:new 0 0 803.1 803.1;" xml:space="preserve">
<style type="text/css">
	.st0{fill:#1F140F;}
	.st1{fill:#FFFFFF;}
	.st2{font-family:'FiraSans-Thin';}
	.st3{font-size:464.7721px;}
	.st4{fill:#FFFFFF;stroke:#FFFFFF;stroke-width:10;stroke-miterlimit:10;}
</style>
<g id="XMLID_378_">
	<path id="XMLID_379_" class="st0" d="M401.6,803.1C180.1,803.1,0,623,0,401.6S180.1,0,401.6,0s401.6,180.1,401.6,401.6
		S623,803.1,401.6,803.1z M401.6,15.6c-212.8,0-385.9,173.1-385.9,385.9c0,212.8,173.1,385.9,385.9,385.9s385.9-173.1,385.9-385.9
		C787.5,188.8,614.4,15.6,401.6,15.6z"/>
</g>
<g id="XMLID_374_">
	<path id="XMLID_375_" class="st0" d="M401.6,775.6c-206.2,0-374-167.8-374-374c0-206.2,167.8-374,374-374
		c206.2,0,374,167.8,374,374C775.6,607.8,607.8,775.6,401.6,775.6z M401.6,32.7c-203.4,0-368.8,165.5-368.8,368.8
		c0,203.4,165.4,368.8,368.8,368.8c203.4,0,368.8-165.5,368.8-368.8C770.4,198.2,604.9,32.7,401.6,32.7z"/>
</g>
<path id="XMLID_373_" class="st0" d="M401.6,58.8c-189,0-342.8,153.8-342.8,342.8c0,189,153.8,342.8,342.8,342.8
	c189,0,342.8-153.8,342.8-342.8C744.3,212.6,590.6,58.8,401.6,58.8z"/>
<g id="XMLID_283_">
	<text transform="matrix(1.0212 0 0 1 85.0086 555.5369)" class="st1 st2 st3">RM</text>
</g>
<line class="st4" x1="363.9" y1="527.6" x2="363.9" y2="744.3"/>
<line class="st4" x1="143.5" y1="573.2" x2="681.1" y2="573.2"/>
</svg>
